<svg width="100.000000" height="85.000000" viewBox="0 0 100 85" fill="none" xmlns="http://www.w3.org/2000/svg" xmlns:xlink="http://www.w3.org/1999/xlink">
	<desc>
			Created with Pixso.
	</desc>
	<defs/>
	<path id="Vector" d="M34.61 38.15L21.15 38.15C19.55 38.15 18.18 37.59 17.06 36.47C15.94 35.34 15.38 33.98 15.38 32.38L15.38 30.46C15.38 26.21 16.88 22.58 19.89 19.58C22.89 16.58 26.52 15.07 30.76 15.07L34.61 15.07C35.65 15.07 36.55 14.69 37.31 13.93C38.08 13.17 38.46 12.27 38.46 11.23L38.46 3.53C38.46 2.49 38.08 1.59 37.31 0.83C36.55 0.07 35.65 -0.31 34.61 -0.31L30.76 -0.31C26.6 -0.31 22.62 0.5 18.84 2.12C15.05 3.74 11.77 5.94 9.01 8.7C6.24 11.47 4.05 14.74 2.43 18.53C0.81 22.31 -0.01 26.29 -0.01 30.46L-0.01 72.76C-0.01 75.97 1.12 78.69 3.36 80.94C5.6 83.18 8.33 84.3 11.53 84.3L34.61 84.3C37.82 84.3 40.54 83.18 42.78 80.94C45.03 78.69 46.15 75.97 46.15 72.76L46.15 49.69C46.15 46.48 45.03 43.76 42.78 41.51C40.54 39.27 37.81 38.15 34.61 38.15Z" fill="#151515" fill-opacity="1.000000" fill-rule="nonzero"/>
	<path id="Vector" d="M96.63 41.51C94.39 39.27 91.66 38.15 88.46 38.15L75 38.15C73.4 38.15 72.03 37.59 70.91 36.47C69.79 35.34 69.23 33.98 69.23 32.38L69.23 30.46C69.23 26.21 70.73 22.58 73.74 19.58C76.74 16.58 80.37 15.07 84.61 15.07L88.46 15.07C89.5 15.07 90.4 14.69 91.16 13.93C91.92 13.17 92.31 12.27 92.31 11.23L92.31 3.53C92.31 2.49 91.92 1.59 91.16 0.83C90.4 0.07 89.5 -0.31 88.46 -0.31L84.61 -0.31C80.44 -0.31 76.47 0.5 72.68 2.12C68.9 3.74 65.62 5.94 62.86 8.7C60.09 11.47 57.9 14.74 56.28 18.53C54.66 22.31 53.84 26.29 53.84 30.46L53.84 72.76C53.84 75.97 54.96 78.69 57.21 80.94C59.45 83.18 62.18 84.3 65.38 84.3L88.46 84.3C91.66 84.3 94.39 83.18 96.63 80.94C98.87 78.69 99.99 75.97 99.99 72.76L99.99 49.69C100 46.48 98.87 43.76 96.63 41.51Z" fill="#151515" fill-opacity="1.000000" fill-rule="nonzero"/>
</svg>
